<svg width="899" height="1023" viewBox="0 0 899 1023" fill="none" xmlns="http://www.w3.org/2000/svg">
<path d="M129.431 981.408L147.321 730.947C148.294 717.33 162.259 708.616 174.918 713.727L396.439 803.178C411.396 809.217 413.518 829.521 400.133 838.523L160.722 999.534C146.814 1008.89 128.237 998.127 129.431 981.408Z" fill="#467BFF"/>
<path fillRule="evenodd" clip-rule="evenodd" d="M449.688 898.519C697.807 898.519 898.947 697.379 898.947 449.26C898.947 201.14 697.807 0 449.688 0C201.57 0 0.429688 201.14 0.429688 449.26C0.429688 697.379 201.57 898.519 449.688 898.519ZM272.669 677.241C242.719 640.361 200.788 567.541 272.669 571.296C298.041 572.622 318.173 578.652 339.648 585.085C394.175 601.417 457.359 620.343 636.948 571.43C637.266 571.344 637.599 571.276 637.927 571.24C662.308 568.56 699.791 581.44 658.227 654.443C605.925 746.307 386.66 812.018 272.669 677.241Z" fill="#467BFF"/>
</svg>
